<svg width="2407" height="800" viewBox="0 0 2407 800" fill="none" xmlns="http://www.w3.org/2000/svg">
<rect width="2407" height="800" fill="white"/>
<g clip-path="url(#clip0_164_11)">
<path d="M507.013 414.458C506.925 409.013 506.881 403.524 506.837 398.121C506.793 393.867 504.809 390.165 503.618 388.336C501.149 384.507 496.211 379.955 486.775 379.912C474.076 379.87 462.347 378.891 451.016 376.977V251.471H450.619L358.465 162.383V162.255H358.333L358.068 162L357.804 162.255L116 162.596V571.404H226.893C236.726 593.187 250.218 611.737 267.767 627.606C289.637 647.431 316.842 662.62 350.925 674.064C352.865 674.702 354.85 675.043 356.922 675.043C359.303 675.043 361.772 674.617 364.33 673.724C380.115 668.363 394.224 662.279 407.408 655.089C448.458 632.753 476.986 600.59 492.198 559.492C501.634 534.008 506.528 506.312 507.19 474.871C507.631 454.705 507.322 434.241 507.013 414.458ZM252.908 529.328C247.837 509.247 245.544 487.464 245.456 458.662C245.456 448.068 245.588 437.262 245.765 426.796C245.809 423.478 245.897 420.159 245.941 416.841C289.593 414.033 326.057 400.716 357.054 376.168C388.007 400.674 424.604 414.033 468.653 416.883V420.585C468.653 427.434 468.609 434.156 468.653 440.878C468.829 458.024 468.829 477.934 466.713 497.547C463.582 526.988 456.615 549.962 444.71 569.873C431.35 592.251 411.597 610.29 385.935 623.479C379.233 626.925 371.958 629.945 364.947 632.838C362.301 633.945 359.656 635.051 357.01 636.157C330.026 626.414 308.729 613.906 291.885 597.91C272.705 579.743 259.962 557.28 252.863 529.243H252.908V529.328ZM405.997 251.471H358.421V205.438L405.997 251.471ZM156.962 202.034L317.459 201.822V290.995H410.01V364.341C395.812 357.662 382.76 348.812 370.899 337.793C368.562 335.624 365.608 333.964 362.61 332.986C357.672 331.454 350.22 331.156 342.812 338.049C326.674 353.109 308.2 364.171 287.917 370.893C270.148 376.807 250.13 379.742 226.893 379.87C215.561 379.955 207.316 387.911 207.228 398.845C207.184 409.013 207.184 419.223 207.228 429.434V435.901H206.831V441.984C206.831 445.388 206.831 448.749 206.787 452.153C206.743 459.598 206.654 467.341 206.919 474.914C207.58 495.761 209.873 514.438 213.841 531.796H156.962V202.034Z" fill="#2058DC"/>
<path d="M326.762 548.643C330.731 552.43 335.669 554.302 340.607 554.302C345.546 554.302 350.484 552.387 354.408 548.643C376.411 527.499 398.369 506.311 420.327 485.124C424.604 480.998 426.544 475.765 425.927 470.106C425.045 462.363 420.503 456.705 413.052 454.195C405.556 451.642 398.281 453.344 392.46 458.875C377.072 473.722 361.64 488.57 346.251 503.461C344.355 505.29 342.503 507.077 340.652 508.992L338.006 506.439C332.45 501.036 326.983 495.76 321.515 490.485C313.799 483.082 301.718 482.997 294.09 490.23C290.342 493.761 288.225 498.483 288.181 503.504C288.137 508.524 290.21 513.289 293.957 516.99C304.363 527.116 315.386 537.752 326.762 548.643Z" fill="#2058DC"/>
<path d="M593.435 385.528C593.435 338.219 623.285 293.462 682.898 293.462C719.98 293.462 748.508 310.565 761.912 345.791L721.259 361.065C715.262 344.175 703.754 332.262 682.854 332.262C652.298 332.262 639.6 358.682 639.6 385.485C639.6 412.288 652.298 438.879 682.854 438.879C703.754 438.879 715.306 427.179 721.259 410.076L761.912 425.349C748.508 460.619 719.98 477.849 682.898 477.849C623.285 477.849 593.435 433.05 593.435 385.4V385.528Z" fill="#2058DC"/>
<path d="M773.023 385.528C773.023 332.135 811.605 293.462 865.486 293.462C919.323 293.462 957.727 332.135 957.727 385.528C957.727 438.921 918.573 477.977 865.486 477.977C812.354 477.977 773.023 439.134 773.023 385.528ZM865.486 438.581C894.366 438.581 911.342 418.627 911.342 385.528C911.342 352.428 894.41 332.645 865.486 332.645C836.561 332.645 819.277 352.428 819.277 385.528C819.233 418.585 836.605 438.581 865.486 438.581Z" fill="#2058DC"/>
<path d="M979.818 296.993H1026.42V319.839C1038.73 300.567 1059.58 293.419 1080.13 293.419C1121.88 293.419 1146.66 317.329 1146.66 358.512V474.361H1100.24V375.062C1100.24 345.579 1089.43 332.262 1066.28 332.262C1039.61 332.262 1026.42 349.876 1026.42 389.272V474.361H979.818V296.993Z" fill="#2058DC"/>
<path d="M1193.76 422.371V331.709H1160.91V296.993H1193.76V231.305L1239.74 231.347V296.993H1278.81V331.709H1239.74V409.948C1239.74 430.455 1244.33 441.261 1260.56 441.261C1265.32 441.261 1271.71 440.155 1278.81 438.198V472.574C1268.98 476.19 1258.53 477.977 1248.12 477.977C1219.15 477.977 1193.76 463.214 1193.76 422.371Z" fill="#2058DC"/>
<path d="M1305.66 296.993H1352.27V321.626C1363.07 304.183 1383.05 293.377 1401.87 293.377C1413.6 293.377 1424.23 296.227 1436.53 303.46L1414.17 343.749C1408.58 340.686 1399.27 337.963 1390.89 337.963C1375.81 337.963 1361.84 345.324 1355.66 362.597C1353.24 369.787 1352.14 378.083 1352.14 398.036V474.276H1305.71V296.993H1305.66Z" fill="#2058DC"/>
<path d="M1562.41 453.301C1549.14 471.808 1529.61 477.934 1509.86 477.934C1469.42 477.934 1439.79 454.748 1439.79 419.478C1439.79 399.312 1449.1 384.422 1463.82 376.296C1475.95 369.489 1491.6 366.596 1508.75 366.596H1561.66V362.299C1561.66 343.792 1548.61 332.262 1524.05 332.262C1507.83 332.262 1492.57 337.495 1476.12 354.045L1442.75 326.902C1464.53 303.673 1495.66 293.462 1527.36 293.462C1578.02 293.462 1607.87 319.542 1607.87 362.341V474.403H1565.37L1562.41 453.301ZM1516.56 441.772C1541.16 441.772 1561.66 424.881 1561.66 401.482V399.865H1515.45C1507.25 399.865 1499.41 400.929 1493.85 404.715C1488.82 408.119 1486.22 413.182 1486.22 419.649C1486.18 433.135 1497.91 441.772 1516.56 441.772Z" fill="#2058DC"/>
<path d="M1627.94 385.528C1627.94 338.219 1657.79 293.462 1717.4 293.462C1754.53 293.462 1783.01 310.565 1796.41 345.791L1755.76 361.065C1749.76 344.175 1738.26 332.262 1717.36 332.262C1686.8 332.262 1674.1 358.682 1674.1 385.485C1674.1 412.288 1686.8 438.879 1717.36 438.879C1738.26 438.879 1749.81 427.179 1755.76 410.076L1796.41 425.349C1783.01 460.619 1754.48 477.849 1717.4 477.849C1657.79 477.849 1627.94 433.05 1627.94 385.4V385.528Z" fill="#2058DC"/>
<path d="M1839.45 422.371V331.709H1806.82V296.993H1839.45V231.305L1885.08 231.347V296.993H1923.84V331.709H1885.08V409.948C1885.08 430.455 1889.58 441.261 1905.76 441.261C1910.48 441.261 1916.83 440.155 1923.89 438.198V472.574C1914.1 476.19 1903.78 477.977 1893.46 477.977C1864.62 477.977 1839.45 463.214 1839.45 422.371Z" fill="#2058DC"/>
<path d="M1944.17 444.494L2035.84 334.432H1948.27V297.036H2092.36V328.859L2004.4 436.794H2092.36V474.403H1944.17V444.494Z" fill="#2058DC"/>
<path d="M2172.48 460.704L2103.12 297.036H2154L2197.04 416.075L2241 297.036H2290.96L2185.44 547.579H2135.13L2172.48 460.704Z" fill="#2058DC"/>
</g>
<defs>
<clipPath id="clip0_164_11">
<rect width="2175" height="513" fill="white" transform="translate(116 162)"/>
</clipPath>
</defs>
</svg>
