<svg width="1646" height="800" viewBox="0 0 1646 800" fill="none" xmlns="http://www.w3.org/2000/svg">
<rect width="1646" height="800" fill="#42365A"/>
<path d="M742.942 391.204C761.783 391.204 775.185 378.601 775.185 360.954C775.185 343.31 761.783 330.885 742.942 330.885H725.916V391.204H742.942ZM690.772 299.195H737.145C780.619 299.195 811.414 324.764 811.414 360.954C811.414 397.145 780.619 422.894 737.145 422.894H690.772V299.195Z" fill="white"/>
<path d="M863.582 353.932H885.138C893.469 353.932 899.449 349.071 899.449 342.408C899.449 335.747 893.469 330.885 885.138 330.885H863.582V353.932ZM900.715 422.894L874.45 385.623H863.582V422.894H828.438V299.195H888.035C915.932 299.195 935.676 317.022 935.676 342.408C935.676 360.055 926.257 373.919 911.043 380.94L940.75 422.894H900.715Z" fill="white"/>
<path d="M989.828 330.345V344.209H1049.06V375.359H989.828V391.744H1054.86V422.894H954.685V299.197H1054.86V330.345H989.828Z" fill="white"/>
<path d="M1141.26 380.582L1129.67 350.513L1117.9 380.582H1141.26ZM1151.23 406.331H1107.93L1101.6 422.894H1061.92L1109.75 299.197H1149.42L1197.24 422.894H1157.57L1151.23 406.331Z" fill="white"/>
<path d="M1208.27 299.195H1243.42L1276.75 358.252L1310.08 299.195H1345.22V422.894H1310.08V356.632L1276.75 415.691L1243.42 356.632V422.894H1208.27V299.195Z" fill="white"/>
<path d="M696.986 695.113L716.55 671.884C729.229 681.789 742.998 687.009 757.671 687.009C767.271 687.009 772.342 683.77 772.342 678.368C772.342 672.424 767.994 671.526 750.786 667.565C723.797 661.442 702.964 654.42 702.964 628.672C702.964 604.005 722.528 587.979 752.054 587.979C773.611 587.979 790.457 593.741 804.224 604.724L786.652 629.393C775.058 621.11 762.38 616.968 751.148 616.968C742.635 616.968 738.47 620.389 738.47 625.071C738.47 631.373 742.816 633.354 760.568 637.134C789.551 643.256 807.666 650.999 807.666 674.586C807.666 700.696 787.559 716 756.402 716C733.94 716 712.746 708.979 696.986 695.113Z" fill="white"/>
<path d="M853.493 621.289H816.72V590.14H925.407V621.289H888.634V713.839H853.493V621.289Z" fill="white"/>
<path d="M939.173 658.919V590.139H974.314V657.12C974.314 672.964 984.277 684.31 998.406 684.31C1012.54 684.31 1022.5 672.964 1022.5 657.12V590.139H1057.64V658.919C1057.64 692.411 1033.18 716 998.406 716C963.626 716 939.173 692.411 939.173 658.919Z" fill="white"/>
<path d="M1130.27 682.149C1149.11 682.149 1162.51 669.544 1162.51 651.899C1162.51 634.254 1149.11 621.829 1130.27 621.829H1113.24V682.149H1130.27ZM1078.1 590.14H1124.47C1167.95 590.14 1198.74 615.708 1198.74 651.899C1198.74 688.091 1167.95 713.839 1124.47 713.839H1078.1V590.14Z" fill="white"/>
<path d="M1216.49 590.14H1251.63V713.839H1216.49V590.14Z" fill="white"/>
<path d="M1368.47 651.898C1368.47 634.432 1353.98 619.667 1336.95 619.667C1319.92 619.667 1305.43 634.432 1305.43 651.898C1305.43 669.543 1319.92 684.31 1336.95 684.31C1353.98 684.31 1368.47 669.543 1368.47 651.898ZM1269.2 651.898C1269.2 617.147 1300.18 587.977 1336.95 587.977C1373.72 587.977 1404.69 617.147 1404.69 651.898C1404.69 686.649 1373.72 716 1336.95 716C1300.18 716 1269.2 686.649 1269.2 651.898Z" fill="white"/>
<path d="M1048.66 506.274C1048.66 471.524 1079.63 442.354 1116.41 442.354C1136.33 442.354 1154.45 450.816 1166.95 464.141L1141.04 486.648C1135.25 479.085 1126.19 474.044 1116.41 474.044C1099.38 474.044 1084.89 488.808 1084.89 506.274C1084.89 523.918 1099.38 538.684 1116.41 538.684C1126.37 538.684 1135.25 533.643 1141.23 526.08L1166.95 548.407C1154.45 561.912 1136.33 570.375 1116.41 570.375C1079.63 570.375 1048.66 541.023 1048.66 506.274Z" fill="white"/>
<path d="M1273.1 506.274C1273.1 488.808 1258.61 474.044 1241.58 474.044C1224.55 474.044 1210.06 488.808 1210.06 506.274C1210.06 523.918 1224.55 538.684 1241.58 538.684C1258.61 538.684 1273.1 523.918 1273.1 506.274ZM1173.83 506.274C1173.83 471.524 1204.81 442.354 1241.58 442.354C1278.35 442.354 1309.33 471.524 1309.33 506.274C1309.33 541.023 1278.35 570.375 1241.58 570.375C1204.81 570.375 1173.83 541.023 1173.83 506.274Z" fill="white"/>
<path d="M1378.34 536.524C1397.18 536.524 1410.58 523.919 1410.58 506.276C1410.58 488.631 1397.18 476.206 1378.34 476.206H1361.31V536.524H1378.34ZM1326.17 444.515H1372.54C1416.01 444.515 1446.81 470.085 1446.81 506.276C1446.81 542.466 1416.01 568.214 1372.54 568.214H1326.17V444.515Z" fill="white"/>
<path d="M1498.97 475.666V489.529H1558.2V520.68H1498.97V537.064H1564V568.214H1463.83V444.515H1564V475.666H1498.97Z" fill="white"/>
<path d="M59 433.203C59 278.23 185.389 152.6 341.298 152.6C497.207 152.6 623.597 278.23 623.597 433.203C623.597 588.175 497.207 713.805 341.298 713.805C185.389 713.805 59 588.175 59 433.203Z" stroke="white" stroke-width="15" stroke-miterlimit="10"/>
<path d="M324.861 343.589C324.861 383.087 292.647 415.107 252.91 415.107C213.172 415.107 180.958 383.087 180.958 343.589C180.958 304.091 213.172 272.07 252.91 272.07C292.647 272.07 324.861 304.091 324.861 343.589Z" fill="white"/>
<path d="M212.699 497.142C212.699 513.406 199.435 526.591 183.073 526.591C166.709 526.591 153.446 513.406 153.446 497.142C153.446 480.879 166.709 467.694 183.073 467.694C199.435 467.694 212.699 480.879 212.699 497.142Z" fill="white"/>
<path d="M392.58 655.958C392.58 665.833 384.526 673.838 374.592 673.838C364.658 673.838 356.604 665.833 356.604 655.958C356.604 646.084 364.658 638.079 374.592 638.079C384.526 638.079 392.58 646.084 392.58 655.958Z" fill="white"/>
<path d="M360.84 499.248C360.84 507.381 352.786 513.973 342.852 513.973C332.918 513.973 324.864 507.381 324.864 499.248C324.864 491.116 332.918 484.524 342.852 484.524C352.786 484.524 360.84 491.116 360.84 499.248Z" fill="white"/>
<path d="M420.091 442.454C420.091 451.749 412.511 459.281 403.162 459.281C393.811 459.281 386.231 451.749 386.231 442.454C386.231 433.159 393.811 425.627 403.162 425.627C412.511 425.627 420.091 433.159 420.091 442.454Z" fill="white"/>
<path d="M474.995 309.115C474.834 309.205 474.662 309.015 474.768 308.864L530.701 228.997C530.744 228.936 530.743 228.855 530.699 228.795L474.86 152.748C474.747 152.594 474.929 152.397 475.091 152.497L569.288 210.459C569.343 210.493 569.412 210.494 569.467 210.461L669.3 151.366C669.465 151.269 669.643 151.47 669.526 151.622L607.918 231.789C607.874 231.846 607.87 231.923 607.906 231.984L655.007 311.129C655.1 311.285 654.922 311.461 654.767 311.366L567.199 257.802C567.146 257.77 567.079 257.768 567.024 257.799L474.995 309.115Z" fill="#FFB546"/>
<path d="M561.229 540.199C561.201 540.404 560.902 540.397 560.884 540.191L535.448 254.505C535.441 254.428 535.384 254.365 535.309 254.35L330.288 213.789C330.087 213.749 330.108 213.457 330.311 213.445L537.57 201.523C537.646 201.518 537.711 201.464 537.729 201.39L574.294 48.827C574.338 48.6431 574.603 48.652 574.635 48.8384L601.038 204.76C601.051 204.836 601.114 204.895 601.191 204.904L810.664 227.59C810.868 227.612 810.872 227.907 810.668 227.935L600.061 256.606C599.983 256.617 599.923 256.678 599.912 256.755L561.229 540.199Z" fill="#FFB546"/>
</svg>
